# xmcd
#
# Track frame offsets: 
#        150
#        15436
#        27195
#        38985
#        50730
#        64593
#        80011
#        93736
#        105862
#        118032
#        137499
#        156460
#        175059
#        194059
#        211617
#        224212
#        236771
#        244541
#        267512
#        282320
#        297319
#
# Disc length: 4167 seconds
#
# Revision: 1
# Processed by: cddbd v1.5.2PL0 Copyright (c) Steve Scherf et al.
# Submitted via: ExactAudioCopyFreeDBPlugin 1.0
#
DISCID=3c104515
DTITLE=Charlie Christian - Swing Time 008 - Charlie Christian Benny Go
DTITLE=odman Vol 2 - 1940-41
DYEAR=2006
DGENRE=Swing
TTITLE0=Benny Goodman And His Sextet - I Can't Give You Anything But L
TTITLE0=ove
TTITLE1=Benny Goodman And His Sextet - Gilly (1)
TTITLE2=Benny Goodman And His Sextet - Gilly (2)
TTITLE3=Benny Goodman And His Sextet - Gilly (3)
TTITLE4=Benny Goodman And His Sextet - Breakfast Feud
TTITLE5=Benny Goodman And His Sextet - On The Alamo
TTITLE6=Benny Goodman And His Sextet - I Found A New Baby
TTITLE7=Benny Goodman And His Sextet - Gone With What Draft (1)
TTITLE8=Benny Goodman And His Sextet - Gone With What Draft (2)
TTITLE9=Edmond Hall Celeste Quartet - Jamming In Four
TTITLE10=Edmond Hall Celeste Quartet - Edmond Hall Blues
TTITLE11=Edmond Hall Celeste Quartet - Profoundly Blue
TTITLE12=Edmond Hall Celeste Quartet - Profoundly Blue No. 2
TTITLE13=Edmond Hall Celeste Quartet - Celestial Express
TTITLE14=Benny Goodman And His Orchestra - Solo Flight  (1)
TTITLE15=Benny Goodman And His Orchestra - Solo Flight  (2)
TTITLE16=Jam Session - Blues In B-Flat
TTITLE17=Jam Session - Waitin' For Benny (Incl. 'A Smo-O-Oth One')
TTITLE18=Jam Session - A Smo-O-O-Oth One  (1)
TTITLE19=Jam Session - A Smo-O-O-Oth One  (2)
TTITLE20=Jam Session - Good Enough To Keep (Air Mail Special)
EXTD=YEAR: 2006
EXTT0=
EXTT1=
EXTT2=
EXTT3=
EXTT4=
EXTT5=
EXTT6=
EXTT7=
EXTT8=
EXTT9=
EXTT10=
EXTT11=
EXTT12=
EXTT13=
EXTT14=
EXTT15=
EXTT16=
EXTT17=
EXTT18=
EXTT19=
EXTT20=
PLAYORDER=
